<svg width="636" height="494" viewBox="0 0 636 494" fill="none" xmlns="http://www.w3.org/2000/svg">
<path d="M13.0897 293.231C9.43548 280.962 5.5402 270.114 3.04062 259.062C-8.1123 209.629 11.5671 169.433 59.5919 137.547C76.4546 126.356 93.1142 114.797 108.213 102.134C127.525 85.9443 125.736 64.2728 105.79 49.9859C85.9834 35.8005 53.1083 36.6887 36.1441 51.813C24.7882 61.9382 25.9809 74.1443 27.0467 86.3376C27.199 88.0125 27.7572 89.6619 28.3663 92.3899C14.3458 72.7232 19.2688 42.4491 39.9633 23.8482C74.564 -7.27593 147.014 -9.66132 179.47 26.9695C212.789 64.5774 210.15 97.3256 171.172 130.366C146.823 150.997 119.214 169.128 93.3299 188.617C56.7878 216.125 25.08 246.12 16.8454 287.763C16.6551 288.727 16.1856 289.666 15.7288 290.592C15.5258 291.011 15.0183 291.328 13.0897 293.257V293.231Z" fill="#68BEB6"/>
<path d="M68.2073 403.162C57.5492 384.751 50.0885 365.478 46.0664 345.405C37.1466 300.984 50.3423 260.94 86.5798 226.796C109.355 205.34 134.846 185.762 158.864 165.144C175.131 151.174 190.813 136.697 198.756 118.223C202.004 110.686 203.438 102.642 206.356 92.5928C208.729 98.2263 210.315 101.842 211.774 105.484C222.369 131.888 233.446 163.71 231.301 191.548C228.612 226.517 205.95 252.972 175.118 275.81C149.133 295.071 115.001 307.074 94.9033 331.131C94.2689 330.788 93.6344 330.458 92.9874 330.116C96.6923 324.964 99.7502 319.42 104.191 314.725C121.181 296.797 138.665 270.697 155.845 252.883C167.467 240.829 176.171 227.557 181.805 211.164C174.585 219.386 169.383 226.809 162.405 232.937C150.985 242.961 139.147 252.857 126.192 261.549C78.4086 293.625 63.0432 343.591 69.5015 391.793C69.9836 395.435 70.1359 399.102 70.4404 402.756C69.6918 402.883 68.9559 403.01 68.2073 403.149V403.162Z" fill="#EA0075"/>
<path d="M54.7197 87.7964C54.7197 81.5918 52.8545 75.0701 55.481 69.3224C60.2517 61.0623 82.1008 56.5961 85.1206 67.952C86.0215 71.3271 87.0365 76.8338 80.2484 80.4118C73.6886 83.863 55.9378 88.1643 54.7197 87.8091V87.7964Z" fill="#EA0075"/>
<path d="M41.968 91.5273C41.968 91.5273 5.61634 122.575 49.213 132.916C49.213 132.916 31.2973 116.612 41.968 91.5273Z" fill="#EA0075"/>
<path d="M387.478 343.152C381.634 350.507 375.56 357.022 369.841 362.94C366.936 365.858 364.159 368.671 361.348 371.166C358.616 373.754 355.969 376.153 353.397 378.314C350.888 380.562 348.417 382.505 346.125 384.312C343.878 386.184 341.766 387.834 339.8 389.236C335.941 392.151 332.785 394.372 330.612 395.831C328.458 397.32 327.306 398.113 327.306 398.113C327.306 398.113 328.578 397.533 330.957 396.446C333.35 395.377 336.851 393.819 341.153 391.406C343.352 390.276 345.723 388.931 348.253 387.386C350.801 385.858 353.538 384.179 356.357 382.214C362.133 378.475 368.305 373.751 374.795 368.29C381.311 362.847 387.989 356.482 394.569 349.288C400.933 342.57 407.001 334.904 412.815 326.667C414.504 325.578 416.946 323.973 419.905 321.937C425.622 318.016 433.002 312.428 439.931 306.387C445.73 301.375 451.153 296.124 455.567 291.657C455.001 291.642 454.436 291.634 453.861 291.565C453.685 291.153 453.566 290.736 453.421 290.318C448.608 293.862 442.867 297.911 436.921 301.676C432.506 304.497 428.058 307.092 423.898 309.378C426.206 305.331 428.422 301.196 430.476 296.92C431.781 294.424 432.89 291.823 434.037 289.228L435.757 285.325C436.406 283.791 436.797 282.678 437.332 281.33C439.332 275.946 441.061 270.201 442.326 264.645C443.438 259.864 444.31 255.052 445.037 250.24C446.005 248.647 447.393 246.305 449.027 243.374C452.153 237.799 455.948 230.163 459.277 222.327C461.001 218.339 462.58 214.3 463.979 210.491C463.305 210.853 462.605 211.183 461.866 211.466C461.309 211.017 460.81 210.537 460.33 210.046C458.711 212.891 456.97 215.839 455.147 218.743C452.454 223.068 449.64 227.226 446.985 230.948C446.987 230.887 446.996 230.826 446.999 230.764C447.507 219.537 447.154 208.515 446.265 197.926C445.342 187.336 443.737 177.198 441.858 167.684C440.891 162.732 439.775 157.973 438.592 153.399C438.885 152.391 439.241 151.157 439.671 149.641C440.654 145.942 441.746 140.841 442.382 135.506C442.649 133.508 442.81 131.494 442.924 129.51C442.419 129.812 441.921 130.115 441.375 130.376C440.822 129.994 440.321 129.575 439.826 129.151C439.493 130.319 439.126 131.486 438.718 132.623C437.659 135.765 436.408 138.714 435.215 141.23C435.215 141.226 435.209 141.22 435.209 141.213C432.822 133.116 430.154 125.851 427.668 119.481C425.168 113.111 422.719 107.679 420.605 103.261C418.517 98.832 416.682 95.4437 415.437 93.1441C414.182 90.8463 413.518 89.6221 413.518 89.6221C413.518 89.6221 415.533 94.8409 418.551 104.088C420.135 108.682 421.733 114.367 423.607 120.846C425.454 127.332 427.16 134.751 428.931 142.827C430.686 150.91 432.142 159.751 433.467 169.098C434.789 178.448 435.671 188.362 436.108 198.603C436.607 208.837 436.569 219.427 435.71 230.078C434.949 240.729 433.47 251.471 430.889 261.878C429.637 267.167 428.011 272.067 426.211 277.09L424.787 280.84L423.211 284.544C422.164 287.01 421.152 289.485 419.946 291.865C415.449 301.532 410.182 310.663 404.729 319.278C399.249 327.885 393.368 335.842 387.479 343.152L387.478 343.152Z" fill="#68BEB6"/>
<path d="M442.922 129.507C464.885 116.372 446.566 65.0752 446.566 65.0752C446.566 65.0752 420.498 112.584 439.821 129.15C440.316 129.574 440.817 129.993 441.37 130.375C441.916 130.114 442.416 129.81 442.922 129.508L442.922 129.507Z" fill="#EA0075"/>
<path d="M463.981 210.488C486.205 198.583 472.073 146.757 472.073 146.757C472.073 146.757 442.511 191.99 460.33 210.045C460.812 210.534 461.317 211.016 461.866 211.465C462.607 211.18 463.307 210.851 463.981 210.488L463.981 210.488Z" fill="#EA0075"/>
<path d="M455.576 291.657C481.209 292.373 493.131 239.131 493.131 239.131C493.129 239.13 444.925 265.828 453.427 290.322C453.57 290.737 453.689 291.151 453.867 291.569C454.445 291.634 455.009 291.64 455.576 291.657L455.576 291.657Z" fill="#EA0075"/>
<path d="M485.603 398.854C485.148 393.342 480.309 389.242 474.798 389.697C471.118 390.003 468.109 392.275 466.624 395.382C462.523 394.299 457.7 392.94 452.944 391.377C447.587 389.661 442.356 387.82 438.164 386.27C442.71 383.567 447.214 380.731 451.705 377.603C458.417 372.664 465.327 366.9 471.563 361.071C472.608 361.119 473.852 361.177 475.379 361.249C479.244 361.402 484.409 361.506 489.592 361.46C493.785 361.449 497.963 361.269 501.484 361.061C502.775 363.514 505.445 365.09 508.379 364.845C512.299 364.521 515.211 361.08 514.89 357.157C514.566 353.237 511.124 350.325 507.202 350.647C503.281 350.97 500.369 354.412 500.691 358.334C500.725 358.714 500.807 359.076 500.895 359.436C497.683 359.056 493.986 358.548 490.319 357.902C485.585 357.097 480.924 356.165 477.321 355.379C482.044 350.457 486.415 345.348 490.468 340.212C495.744 333.395 500.467 326.523 504.389 319.68C504.392 319.673 504.398 319.667 504.4 319.658C505.256 319.337 506.986 318.694 509.312 317.825C512.626 316.56 517.025 314.786 521.383 312.879C523.7 311.883 525.982 310.828 528.105 309.807C529.514 313.425 533.132 315.864 537.203 315.528C542.16 315.117 545.845 310.768 545.434 305.807C545.023 300.85 540.674 297.165 535.713 297.576C530.756 297.986 527.071 302.336 527.482 307.297C527.496 307.482 527.555 307.653 527.58 307.838C525.401 308.446 523.071 309.057 520.718 309.605C516.324 310.657 511.93 311.572 508.572 312.209C510.773 308.017 512.729 303.892 514.508 299.975C515.795 296.795 517.107 293.792 518.206 290.876C519.217 287.932 520.182 285.137 521.087 282.51C522.439 278.141 523.517 274.244 524.326 270.825C525.14 270.967 525.968 271.042 526.827 270.973C532.235 270.525 536.256 265.778 535.809 260.37C535.361 254.962 530.614 250.941 525.206 251.389C519.798 251.837 515.776 256.583 516.224 261.991C516.536 265.728 518.92 268.766 522.136 270.159C520.874 273.388 519.291 277.04 517.53 281.146C516.357 283.596 515.109 286.21 513.796 288.955C512.394 291.651 510.919 294.486 509.383 297.445C506.07 303.229 502.414 309.434 498.109 315.704C495.875 319.078 493.401 322.428 490.796 325.784C490.732 322.315 490.713 318.366 490.787 314.38C490.848 309.213 491.167 304.071 491.494 299.97C492.359 300.249 493.295 300.369 494.263 300.287C498.184 299.964 501.096 296.522 500.774 292.6C500.449 288.681 497.009 285.767 493.086 286.089C489.166 286.412 486.254 289.854 486.576 293.776C486.778 296.198 488.167 298.23 490.125 299.357C488.997 303.558 487.628 309.022 486.537 314.521C485.364 320.227 484.366 325.939 483.709 330.228C483.386 332.451 483.118 334.258 482.938 335.512C477.799 341.535 472.037 347.293 466.104 353.036C462.896 355.989 459.667 358.796 456.314 361.533C456.628 357.889 457.028 353.823 457.519 349.718C458.043 345.055 458.748 340.398 459.417 336.413C459.619 336.408 459.815 336.442 460.021 336.422C464.978 336.012 468.663 331.662 468.252 326.702C467.841 321.744 463.492 318.06 458.531 318.471C453.574 318.881 449.889 323.231 450.3 328.191C450.636 332.266 453.653 335.441 457.463 336.228C456.111 340.12 454.608 344.68 453.275 349.28C451.472 355.349 449.848 361.454 448.716 366.045C448.577 366.634 448.441 367.197 448.311 367.732C447.451 368.369 446.616 369.013 445.733 369.653C438.783 374.614 431.196 379.372 423.64 383.476C419.799 385.461 415.963 387.395 412.123 389.21C412.14 388.945 412.158 388.732 412.175 388.459C412.539 383.79 413.147 377.567 413.952 371.34C414.649 365.593 415.63 359.868 416.48 355.355C416.677 355.355 416.864 355.38 417.068 355.366C420.988 355.043 423.9 351.601 423.579 347.679C423.255 343.758 419.813 340.846 415.891 341.168C411.97 341.491 409.058 344.933 409.38 348.855C409.643 352.015 411.941 354.489 414.869 355.173C413.204 359.598 411.188 365.22 409.438 370.914C407.497 377.083 405.745 383.29 404.516 387.958C403.992 390.027 403.544 391.76 403.211 393.081C402.344 393.44 401.477 393.872 400.603 394.216C392.879 397.118 385.35 399.868 377.994 401.796C370.678 403.853 363.628 405.33 357.08 406.603C353.786 407.11 350.625 407.592 347.622 408.054C344.597 408.416 341.724 408.756 339.025 409.078C333.602 409.5 328.858 409.909 324.944 409.99C321.028 410.203 317.902 410.154 315.792 410.188C313.667 410.214 312.538 410.223 312.538 410.223C312.538 410.223 313.654 410.397 315.746 410.725C317.847 411.007 320.876 411.669 324.845 411.956C328.803 412.411 333.621 412.719 339.167 412.861C341.946 412.847 344.898 412.835 348.013 412.817C351.128 412.721 354.396 412.439 357.817 412.242C364.629 411.56 372.037 410.704 379.73 408.992C387.464 407.471 395.496 405.219 403.647 402.41C411.769 399.53 420.029 396.102 428.107 391.968C428.196 391.921 428.286 391.865 428.373 391.816C429.742 392.078 431.63 392.439 433.894 392.87C438.641 393.739 445.006 394.784 451.415 395.643C456.511 396.358 461.612 396.869 465.954 397.235C465.693 398.278 465.552 399.368 465.642 400.501C466.097 406.013 470.937 410.112 476.448 409.657C481.963 409.206 486.061 404.368 485.605 398.855L485.603 398.854Z" fill="#68BEB6"/>
<circle cx="416.826" cy="347.354" r="8.55802" fill="#EA0075"/>
<circle cx="459.365" cy="327.469" r="9.31314" fill="#EA0075"/>
<circle cx="494.1" cy="292.231" r="9.31314" fill="#EA0075"/>
<circle cx="509.203" cy="358.178" r="8.80973" fill="#EA0075"/>
<circle cx="538.149" cy="307.585" r="10.5717" fill="#EA0075"/>
<circle cx="476.481" cy="400.464" r="11.8302" fill="#EA0075"/>
<circle cx="527.325" cy="261.019" r="11.8302" fill="#EA0075"/>
</svg>
