<svg width="435" height="408" viewBox="0 0 435 408" fill="none" xmlns="http://www.w3.org/2000/svg">
<path d="M163.41 314.78C151.78 303.72 137.2 298.67 122.41 294.01C-17.39 250.44 -4.38007 139.91 5.80993 123.79C7.26993 121.48 7.64996 117.5 6.77996 114.86C-0.760039 91.83 -3.75009 65.35 8.41991 43.4C22.8499 18.86 26.09 5.87 23.72 2.47C35.98 3.51 41.7399 11.87 44.1799 19.01C61.1299 13.84 81.5299 10.78 95.3599 16.59C96.1299 16.91 97.06 16.86 99.16 17.15C101.3 15.07 106.64 12.83 101.99 0C114.89 3.35 129.07 21.92 132.06 36.87C135.94 56.29 132.47 74.75 124.42 92.65C122.62 96.66 122.01 101.33 121.49 105.77C120.5 114.16 115.54 119.26 107.69 123.6C106.92 120.5 106.12 117.88 105.63 115.2C101.82 94.36 95.3399 74.69 80.2499 59.02C72.0099 50.47 56.96 52.01 50.09 61.72C39.25 77.05 42.92 98.04 58.35 108.94C60.33 110.34 62.3399 111.68 64.4899 113.14C61.2499 119.21 58.0499 124.99 55.0499 130.86C39.9499 160.47 41.9899 188.57 62.4399 215.13C74.8599 231.26 90.32 244.27 105.53 257.51C126.02 275.35 148.09 291.56 163.42 314.78H163.41Z" fill="black"/>
<path d="M163.41 314.78C151.78 303.72 137.2 298.67 122.41 294.01C-17.39 250.44 -4.38007 139.91 5.80993 123.79C7.26993 121.48 7.64996 117.5 6.77996 114.86C-0.760039 91.83 -3.75009 65.35 8.41991 43.4C22.8499 18.86 26.09 5.87 23.72 2.47C35.98 3.51 41.7399 11.87 44.1799 19.01C61.1299 13.84 81.5299 10.78 95.3599 16.59C96.1299 16.91 97.06 16.86 99.16 17.15C101.3 15.07 106.64 12.83 101.99 0C114.89 3.35 129.07 21.92 132.06 36.87C135.94 56.29 132.47 74.75 124.42 92.65C122.62 96.66 122.01 101.33 121.49 105.77C120.5 114.16 115.54 119.26 107.69 123.6C106.92 120.5 106.12 117.88 105.63 115.2C101.82 94.36 95.3399 74.69 80.2499 59.02C72.0099 50.47 56.96 52.01 50.09 61.72C39.25 77.05 42.92 98.04 58.35 108.94C60.33 110.34 62.3399 111.68 64.4899 113.14C61.2499 119.21 58.0499 124.99 55.0499 130.86C39.9499 160.47 41.9899 188.57 62.4399 215.13C74.8599 231.26 90.32 244.27 105.53 257.51C126.02 275.35 148.09 291.56 163.42 314.78H163.41Z" fill="#68BEB6"/>
<path d="M186.521 337C177.141 311.67 160.671 292.16 140.781 274.57C120.011 256.19 100.01 236.88 80.5505 217.1C69.3105 205.68 63.5305 190.78 63.8105 174.65C64.1005 158.09 70.1305 142.98 79.5005 129.29C82.6105 124.75 85.8005 120.26 89.9205 114.38C88.7005 132.33 90.0405 148.48 98.1805 162.86C104.84 174.62 112.451 185.98 120.781 196.62C142.901 224.87 161.351 255.12 172.831 289.21C178.111 304.89 181.991 321.05 186.511 336.99L186.521 337Z" fill="black"/>
<path d="M186.521 337C177.141 311.67 160.671 292.16 140.781 274.57C120.011 256.19 100.01 236.88 80.5505 217.1C69.3105 205.68 63.5305 190.78 63.8105 174.65C64.1005 158.09 70.1305 142.98 79.5005 129.29C82.6105 124.75 85.8005 120.26 89.9205 114.38C88.7005 132.33 90.0405 148.48 98.1805 162.86C104.84 174.62 112.451 185.98 120.781 196.62C142.901 224.87 161.351 255.12 172.831 289.21C178.111 304.89 181.991 321.05 186.511 336.99L186.521 337Z" fill="#EA0075"/>
<path d="M171.731 263.75C171.731 255.85 151.081 207.36 128.661 185.92C112.141 170.77 118.921 144.97 132.891 127.85C136.731 123.14 141.611 119.29 146.701 114.38C150.131 119.96 153.491 124.17 155.511 128.96C163.171 147.12 171.831 165.03 177.421 183.83C185.341 210.51 184.861 237.58 173.721 263.73C173.061 263.73 172.391 263.73 171.731 263.74V263.75Z" fill="black"/>
<path d="M171.731 263.75C171.731 255.85 151.081 207.36 128.661 185.92C112.141 170.77 118.921 144.97 132.891 127.85C136.731 123.14 141.611 119.29 146.701 114.38C150.131 119.96 153.491 124.17 155.511 128.96C163.171 147.12 171.831 165.03 177.421 183.83C185.341 210.51 184.861 237.58 173.721 263.73C173.061 263.73 172.391 263.73 171.731 263.74V263.75Z" fill="#EA0075"/>
<path d="M58.1401 66.5098C68.8901 74.6198 78.1801 81.6298 87.4601 88.6298C90.1001 94.0998 76.4 94.9698 71.49 93.9698C63.64 92.3698 57.9001 80.2998 58.1401 66.5098Z" fill="black"/>
<path d="M58.1401 66.5098C68.8901 74.6198 78.1801 81.6298 87.4601 88.6298C90.1001 94.0998 76.4 94.9698 71.49 93.9698C63.64 92.3698 57.9001 80.2998 58.1401 66.5098Z" fill="#68BEB6"/>
<path d="M319.996 395C319.996 344 330.153 299.378 337 281C347.127 253.816 360.897 228.303 378 201" stroke="#68BEB6" stroke-width="10"/>
<path d="M345.003 264.056C352.567 256.502 361.752 252.217 371.864 249.188C382.425 246.022 392.859 242.394 403.174 238.507C409.131 236.264 413.676 231.864 416.222 226.017C418.834 220.014 419.124 213.58 417.967 207.104C417.583 204.956 417.161 202.812 416.629 200.015C414.127 206.672 410.989 212.257 405.672 216.079C401.323 219.204 396.694 222.027 391.922 224.473C379.251 230.964 367.584 238.784 357.819 249.14C353.328 253.903 349.266 259.071 345.008 264.054L345.003 264.056Z" fill="#EA0075"/>
<path d="M345.003 264.056C352.567 256.502 361.752 252.217 371.864 249.188C382.425 246.022 392.859 242.394 403.174 238.507C409.131 236.264 413.676 231.864 416.222 226.017C418.834 220.014 419.124 213.58 417.967 207.104C417.583 204.956 417.161 202.812 416.629 200.015C414.127 206.672 410.989 212.257 405.672 216.079C401.323 219.204 396.694 222.027 391.922 224.473C379.251 230.964 367.584 238.784 357.819 249.14C353.328 253.903 349.266 259.071 345.008 264.054L345.003 264.056Z" fill="#EA0075"/>
<path d="M350.497 246.501C349.526 243.535 351.247 222.816 356.955 212.033C361.24 204.332 355.543 195.475 348.237 190.753C346.228 189.453 343.938 188.604 341.44 187.382C340.849 189.894 340.117 191.884 339.954 193.929C339.337 201.68 338.316 209.459 338.548 217.197C338.882 228.177 342.391 238.28 349.754 246.736C350 246.655 350.249 246.574 350.496 246.497L350.497 246.501Z" fill="#EA0075"/>
<path d="M350.497 246.501C349.526 243.535 351.247 222.816 356.955 212.033C361.24 204.332 355.543 195.475 348.237 190.753C346.228 189.453 343.938 188.604 341.44 187.382C340.849 189.894 340.117 191.884 339.954 193.929C339.337 201.68 338.316 209.459 338.548 217.197C338.882 228.177 342.391 238.28 349.754 246.736C350 246.655 350.249 246.574 350.496 246.497L350.497 246.501Z" fill="#EA0075"/>
<path d="M329 319.792C337.909 310.83 348.753 305.725 360.702 302.102C373.181 298.314 385.508 293.981 397.692 289.342C404.729 286.664 410.082 281.444 413.061 274.521C416.119 267.413 416.425 259.807 415.02 252.156C414.553 249.618 414.041 247.086 413.397 243.782C410.473 251.662 406.792 258.278 400.521 262.818C395.392 266.531 389.931 269.889 384.298 272.8C369.34 280.528 355.579 289.821 344.082 302.105C338.794 307.755 334.017 313.881 329.006 319.79L329 319.792Z" fill="#EA0075"/>
<path d="M329 319.792C337.909 310.83 348.753 305.725 360.702 302.102C373.181 298.314 385.508 293.981 397.692 289.342C404.729 286.664 410.082 281.444 413.061 274.521C416.119 267.413 416.425 259.807 415.02 252.156C414.553 249.618 414.041 247.086 413.397 243.782C410.473 251.662 406.792 258.278 400.521 262.818C395.392 266.531 389.931 269.889 384.298 272.8C369.34 280.528 355.579 289.821 344.082 302.105C338.794 307.755 334.017 313.881 329.006 319.79L329 319.792Z" fill="#EA0075"/>
<path d="M329.55 300.479C327.417 297.518 322.201 273.67 324.963 259.474C327.173 249.257 317.622 241.449 307.671 238.87C304.935 238.16 302.034 238.058 298.767 237.616C298.966 240.649 298.821 243.15 299.344 245.501C301.325 254.412 302.858 263.504 305.802 272.087C309.985 284.263 317.476 294.277 328.785 301.019C329.037 300.837 329.293 300.653 329.547 300.476L329.55 300.479Z" fill="#EA0075"/>
<path d="M329.55 300.479C327.417 297.518 322.201 273.67 324.963 259.474C327.173 249.257 317.622 241.449 307.671 238.87C304.935 238.16 302.034 238.058 298.767 237.616C298.966 240.649 298.821 243.15 299.344 245.501C301.325 254.412 302.858 263.504 305.802 272.087C309.985 284.263 317.476 294.277 328.785 301.019C329.037 300.837 329.293 300.653 329.547 300.476L329.55 300.479Z" fill="#EA0075"/>
<path d="M321.999 379.524C332.574 368.886 345.447 362.826 359.631 358.525C374.445 354.029 389.077 348.884 403.54 343.378C411.893 340.199 418.248 334.002 421.785 325.785C425.414 317.347 425.778 308.318 424.109 299.236C423.555 296.224 422.948 293.218 422.183 289.295C418.711 298.649 414.342 306.503 406.899 311.893C400.81 316.3 394.327 320.286 387.641 323.741C369.885 332.915 353.549 343.947 339.902 358.528C333.625 365.235 327.954 372.508 322.006 379.521L321.999 379.524Z" fill="#EA0075"/>
<path d="M321.999 379.524C332.574 368.886 345.447 362.826 359.631 358.525C374.445 354.029 389.077 348.884 403.54 343.378C411.893 340.199 418.248 334.002 421.785 325.785C425.414 317.347 425.778 308.318 424.109 299.236C423.555 296.224 422.948 293.218 422.183 289.295C418.711 298.649 414.342 306.503 406.899 311.893C400.81 316.3 394.327 320.286 387.641 323.741C369.885 332.915 353.549 343.947 339.902 358.528C333.625 365.235 327.954 372.508 322.006 379.521L321.999 379.524Z" fill="#EA0075"/>
<path d="M317.889 373.599C315.357 370.084 309.165 341.774 312.444 324.923C315.068 312.795 303.729 303.527 291.918 300.465C288.67 299.622 285.226 299.5 281.348 298.976C281.584 302.577 281.412 305.546 282.033 308.336C284.385 318.914 286.204 329.707 289.699 339.895C294.664 354.349 303.557 366.237 316.982 374.239C317.28 374.023 317.584 373.805 317.886 373.594L317.889 373.599Z" fill="#EA0075"/>
<path d="M317.889 373.599C315.357 370.084 309.165 341.774 312.444 324.923C315.068 312.795 303.729 303.527 291.918 300.465C288.67 299.622 285.226 299.5 281.348 298.976C281.584 302.577 281.412 305.546 282.033 308.336C284.385 318.914 286.204 329.707 289.699 339.895C294.664 354.349 303.557 366.237 316.982 374.239C317.28 374.023 317.584 373.805 317.886 373.594L317.889 373.599Z" fill="#EA0075"/>
<path d="M377.999 205.557C383.855 200.407 390.704 197.705 398.154 195.96C405.935 194.134 413.649 191.967 421.292 189.607C425.705 188.244 429.216 185.25 431.364 181.114C433.568 176.867 434.122 172.203 433.635 167.442C433.473 165.863 433.283 164.285 433.05 162.227C430.89 166.955 428.33 170.874 424.293 173.413C420.991 175.488 417.504 177.332 413.934 178.895C404.454 183.043 395.627 188.202 388.034 195.291C384.542 198.551 381.338 202.126 378.003 205.556L377.999 205.557Z" fill="#EA0075"/>
<path d="M377.999 205.557C383.855 200.407 390.704 197.705 398.154 195.96C405.935 194.134 413.649 191.967 421.292 189.607C425.705 188.244 429.216 185.25 431.364 181.114C433.568 176.867 434.122 172.203 433.635 167.442C433.473 165.863 433.283 164.285 433.05 162.227C430.89 166.955 428.33 170.874 424.293 173.413C420.991 175.488 417.504 177.332 413.934 178.895C404.454 183.043 395.627 188.202 388.034 195.291C384.542 198.551 381.338 202.126 378.003 205.556L377.999 205.557Z" fill="#EA0075"/>
<path d="M376.308 200.614C375.973 198.534 379.472 184.872 384.592 178.257C388.393 173.552 385.476 167.052 380.994 163.149C379.762 162.075 378.287 161.272 376.71 160.199C376.024 161.817 375.299 163.071 374.959 164.42C373.668 169.533 372.098 174.624 371.392 179.816C370.392 187.184 371.668 194.291 375.772 200.695C375.949 200.666 376.13 200.637 376.308 200.611L376.308 200.614Z" fill="#EA0075"/>
<path d="M376.308 200.614C375.973 198.534 379.472 184.872 384.592 178.257C388.393 173.552 385.476 167.052 380.994 163.149C379.762 162.075 378.287 161.272 376.71 160.199C376.024 161.817 375.299 163.071 374.959 164.42C373.668 169.533 372.098 174.624 371.392 179.816C370.392 187.184 371.668 194.291 375.772 200.695C375.949 200.666 376.13 200.637 376.308 200.611L376.308 200.614Z" fill="#EA0075"/>
</svg>
