<svg width="435" height="382" viewBox="0 0 435 382" fill="none" xmlns="http://www.w3.org/2000/svg">
<path d="M35.8888 78.8498C34.0188 86.7298 30.8888 94.5498 30.5088 102.5C29.0988 132.02 35.8088 158.56 61.1888 177.31C68.9488 183.05 76.5088 189.07 84.0088 195.15C104.719 211.95 116.549 233.55 118.819 260.24C118.969 262.06 119.329 263.87 120.169 265.78C143.769 232.41 160.979 197.24 152.459 153.65C157.919 163.08 161.149 172.47 163.059 182.31C168.739 211.68 162.929 239.3 148.859 265.12C134.119 292.16 112.949 313.49 87.1488 330.24C85.9588 331.01 84.6388 331.58 83.0788 332.39C87.1788 301.87 72.7588 278.83 55.0788 257.17C46.4488 246.6 36.4989 237.07 28.2289 226.24C14.4389 208.18 4.94883 187.93 1.32883 165.26C-3.75117 133.47 5.78882 106.63 29.0088 84.5298C31.1588 82.4798 33.6288 80.7598 35.9488 78.8898L35.8988 78.8398L35.8888 78.8498Z" fill="black"/>
<path d="M35.8888 78.8498C34.0188 86.7298 30.8888 94.5498 30.5088 102.5C29.0988 132.02 35.8088 158.56 61.1888 177.31C68.9488 183.05 76.5088 189.07 84.0088 195.15C104.719 211.95 116.549 233.55 118.819 260.24C118.969 262.06 119.329 263.87 120.169 265.78C143.769 232.41 160.979 197.24 152.459 153.65C157.919 163.08 161.149 172.47 163.059 182.31C168.739 211.68 162.929 239.3 148.859 265.12C134.119 292.16 112.949 313.49 87.1488 330.24C85.9588 331.01 84.6388 331.58 83.0788 332.39C87.1788 301.87 72.7588 278.83 55.0788 257.17C46.4488 246.6 36.4989 237.07 28.2289 226.24C14.4389 208.18 4.94883 187.93 1.32883 165.26C-3.75117 133.47 5.78882 106.63 29.0088 84.5298C31.1588 82.4798 33.6288 80.7598 35.9488 78.8898L35.8988 78.8398L35.8888 78.8498Z" fill="#68BEB6"/>
<path d="M128.55 119.5C132.83 111.86 130.09 105.46 126.07 99.4101C118.83 88.5201 108.19 81.9001 96.3598 77.3001C88.0998 74.0901 79.4498 71.8301 70.9198 69.3601C57.2098 65.3901 44.4998 59.6001 34.8398 48.7401C24.0298 36.5901 20.0198 22.8001 26.2398 7.02006C26.5998 6.10006 27.0998 5.23006 27.7898 3.81006C28.5098 6.76006 28.9198 9.26006 29.7298 11.6201C32.5698 19.8501 38.3198 25.6201 45.7298 29.8701C56.0698 35.7901 67.4898 37.8201 79.1198 39.3201C95.7498 41.4701 112.53 43.0701 128.89 46.5801C146.49 50.3501 159.58 68.2901 159.17 85.4801C158.97 93.9501 156.12 101.68 151.82 108.9C150.79 110.63 150.4 111.83 151.79 113.85C155.96 119.94 154.68 132.02 149.44 138.03C144.06 130.3 137.72 123.66 128.54 119.5H128.55Z" fill="black"/>
<path d="M128.55 119.5C132.83 111.86 130.09 105.46 126.07 99.4101C118.83 88.5201 108.19 81.9001 96.3598 77.3001C88.0998 74.0901 79.4498 71.8301 70.9198 69.3601C57.2098 65.3901 44.4998 59.6001 34.8398 48.7401C24.0298 36.5901 20.0198 22.8001 26.2398 7.02006C26.5998 6.10006 27.0998 5.23006 27.7898 3.81006C28.5098 6.76006 28.9198 9.26006 29.7298 11.6201C32.5698 19.8501 38.3198 25.6201 45.7298 29.8701C56.0698 35.7901 67.4898 37.8201 79.1198 39.3201C95.7498 41.4701 112.53 43.0701 128.89 46.5801C146.49 50.3501 159.58 68.2901 159.17 85.4801C158.97 93.9501 156.12 101.68 151.82 108.9C150.79 110.63 150.4 111.83 151.79 113.85C155.96 119.94 154.68 132.02 149.44 138.03C144.06 130.3 137.72 123.66 128.54 119.5H128.55Z" fill="#68BEB6"/>
<path d="M133.389 42.51C121.159 36.63 107.839 35.79 94.709 34.14C89.499 33.49 84.2491 33.08 79.0391 32.42C77.8791 32.27 76.319 31.84 75.749 30.99C69.399 21.61 67.1391 11.27 68.7991 0C76.6791 16.68 91.289 23.57 107.779 28.54C115.439 30.85 122.469 35.29 129.679 38.96C131.129 39.7 132.129 41.33 133.339 42.55L133.389 42.5V42.51Z" fill="black"/>
<path d="M133.389 42.51C121.159 36.63 107.839 35.79 94.709 34.14C89.499 33.49 84.2491 33.08 79.0391 32.42C77.8791 32.27 76.319 31.84 75.749 30.99C69.399 21.61 67.1391 11.27 68.7991 0C76.6791 16.68 91.289 23.57 107.779 28.54C115.439 30.85 122.469 35.29 129.679 38.96C131.129 39.7 132.129 41.33 133.339 42.55L133.389 42.5V42.51Z" fill="#EA0075"/>
<path d="M70.5684 79.97C74.1284 84.12 77.8884 87.94 79.1784 93.77C79.6784 96.01 80.5884 98.02 81.8784 99.72C82.3884 94.58 86.7184 90.57 91.9884 90.57C97.5984 90.57 102.148 95.12 102.148 100.73C102.148 102.85 101.498 104.82 100.388 106.44C103.218 106.72 106.048 106.96 108.868 107.24C109.848 107.34 110.878 106.88 111.908 106.67C108.758 94.18 87.0984 80.38 70.5684 79.96V79.97Z" fill="black"/>
<path d="M70.5684 79.97C74.1284 84.12 77.8884 87.94 79.1784 93.77C79.6784 96.01 80.5884 98.02 81.8784 99.72C82.3884 94.58 86.7184 90.57 91.9884 90.57C97.5984 90.57 102.148 95.12 102.148 100.73C102.148 102.85 101.498 104.82 100.388 106.44C103.218 106.72 106.048 106.96 108.868 107.24C109.848 107.34 110.878 106.88 111.908 106.67C108.758 94.18 87.0984 80.38 70.5684 79.96V79.97Z" fill="#EA0075"/>
<path d="M94.389 91.8101C90.019 91.8101 86.419 95.1401 85.999 99.4001C85.969 99.6801 85.959 99.9601 85.959 100.24C85.959 104.9 89.739 108.67 94.389 108.67C97.289 108.67 99.849 107.21 101.359 104.98C102.279 103.63 102.819 102 102.819 100.24C102.819 95.5801 99.039 91.8101 94.389 91.8101Z" fill="black"/>
<path d="M94.389 91.8101C90.019 91.8101 86.419 95.1401 85.999 99.4001C85.969 99.6801 85.959 99.9601 85.959 100.24C85.959 104.9 89.739 108.67 94.389 108.67C97.289 108.67 99.849 107.21 101.359 104.98C102.279 103.63 102.819 102 102.819 100.24C102.819 95.5801 99.039 91.8101 94.389 91.8101Z" fill="#EA0075"/>
<path fill-rule="evenodd" clip-rule="evenodd" d="M417.585 234.435C423.333 234.435 428.941 235.083 434.317 236.293C434.716 236.383 435 236.732 435 237.136C435 237.541 434.719 237.891 434.32 237.981C401.989 245.305 377.848 273.913 377.848 308.098C377.848 342.267 401.988 370.874 434.32 378.199V378.2C434.719 378.289 435.001 378.64 435 379.044C435 379.449 434.716 379.799 434.317 379.888C428.941 381.097 423.335 381.745 417.585 381.745C376.408 381.745 343 348.769 343 308.099C343 267.413 376.408 234.435 417.585 234.435V234.435Z" fill="#EA0075"/>
<path fill-rule="evenodd" clip-rule="evenodd" d="M283.864 183.977C284.683 184.022 285.353 184.637 285.455 185.443L289.462 217.233L292.423 240.687L316.168 243.609L348.356 247.567C349.206 247.671 349.845 248.384 349.845 249.229C349.845 250.077 349.206 250.79 348.356 250.894L316.168 254.852L292.423 257.774L289.462 281.226L285.455 313.016V313.018C285.351 313.857 284.629 314.487 283.771 314.487C282.914 314.487 282.192 313.857 282.087 313.018L278.08 281.228L275.12 257.777L251.375 254.854L219.187 250.897V250.894C218.337 250.79 217.697 250.077 217.697 249.229C217.697 248.384 218.337 247.671 219.187 247.567L251.375 243.609L275.12 240.687L278.08 217.233L282.087 185.443C282.196 184.569 282.973 183.929 283.864 183.977H283.864Z" fill="#FAFDFD"/>
<path fill-rule="evenodd" clip-rule="evenodd" d="M336.896 155.341C337.718 155.386 338.388 156.005 338.49 156.81L340.29 171.129L341.55 180.997L351.511 182.212L366.044 183.989C366.894 184.093 367.533 184.808 367.533 185.653C367.533 186.499 366.894 187.212 366.044 187.316L351.516 189.092H351.512L341.548 190.336L340.288 200.176V200.178L338.49 214.492V214.495C338.386 215.333 337.664 215.963 336.806 215.963C335.951 215.963 335.229 215.333 335.123 214.495L333.323 200.176L332.093 190.337L322.102 189.092L307.605 187.315H307.603C306.753 187.211 306.113 186.496 306.113 185.65C306.113 184.805 306.753 184.092 307.603 183.985L322.099 182.209L332.091 180.994L333.32 171.126L335.12 156.807V156.809C335.232 155.935 336.006 155.293 336.896 155.341L336.896 155.341Z" fill="#FAFDFD"/>
<path fill-rule="evenodd" clip-rule="evenodd" d="M265.67 116.205C266.553 116.165 267.321 116.805 267.429 117.671L269.229 132.024L270.459 141.859L280.45 143.074H280.455L294.951 144.886L294.954 144.884C295.802 144.99 296.436 145.706 296.436 146.551C296.434 147.394 295.797 148.107 294.949 148.211L280.453 149.988L270.461 151.203L269.232 161.071L267.432 175.39H267.429C267.323 176.228 266.603 176.856 265.748 176.856C264.893 176.858 264.171 176.231 264.062 175.392L262.229 161.074V161.076V161.069L261 151.2L251.043 149.985L236.511 148.209C235.661 148.105 235.023 147.392 235.023 146.546C235.021 145.701 235.658 144.988 236.506 144.881L251.038 143.07H251.043L261 141.855L262.229 132.019V132.021V132.019L264.062 117.667H264.064C264.168 116.857 264.846 116.239 265.672 116.201L265.67 116.205Z" fill="#FAFDFD"/>
</svg>
