<svg width="636" height="494" viewBox="0 0 636 494" fill="none" xmlns="http://www.w3.org/2000/svg">
<path d="M13.0897 293.231C9.43548 280.962 5.5402 270.114 3.04062 259.062C-8.1123 209.629 11.5671 169.433 59.5919 137.547C76.4546 126.356 93.1142 114.797 108.213 102.134C127.525 85.9443 125.736 64.2728 105.79 49.9859C85.9834 35.8005 53.1083 36.6887 36.1441 51.813C24.7882 61.9382 25.9809 74.1443 27.0467 86.3376C27.199 88.0125 27.7572 89.6619 28.3663 92.3899C14.3458 72.7232 19.2688 42.4491 39.9633 23.8482C74.564 -7.27593 147.014 -9.66132 179.47 26.9695C212.789 64.5774 210.15 97.3256 171.172 130.366C146.823 150.997 119.214 169.128 93.3299 188.617C56.7878 216.125 25.08 246.12 16.8454 287.763C16.6551 288.727 16.1856 289.666 15.7288 290.592C15.5258 291.011 15.0183 291.328 13.0897 293.257V293.231Z" fill="#EA0075"/>
<path d="M68.2073 403.162C57.5492 384.751 50.0885 365.478 46.0664 345.405C37.1466 300.984 50.3423 260.94 86.5798 226.796C109.355 205.34 134.846 185.762 158.864 165.144C175.131 151.174 190.813 136.697 198.756 118.223C202.004 110.686 203.438 102.642 206.356 92.5928C208.729 98.2263 210.315 101.842 211.774 105.484C222.369 131.888 233.446 163.71 231.301 191.548C228.612 226.517 205.95 252.972 175.118 275.81C149.133 295.071 115.001 307.074 94.9033 331.131C94.2689 330.788 93.6344 330.458 92.9874 330.116C96.6923 324.964 99.7502 319.42 104.191 314.725C121.181 296.797 138.665 270.697 155.845 252.883C167.467 240.829 176.171 227.557 181.805 211.164C174.585 219.386 169.383 226.809 162.405 232.937C150.985 242.961 139.147 252.857 126.192 261.549C78.4086 293.625 63.0432 343.591 69.5015 391.793C69.9836 395.435 70.1359 399.102 70.4404 402.756C69.6918 402.883 68.9559 403.01 68.2073 403.149V403.162Z" fill="#68BEB6"/>
<path d="M54.7197 87.7964C54.7197 81.5918 52.8545 75.0701 55.481 69.3224C60.2517 61.0623 82.1008 56.5961 85.1206 67.952C86.0215 71.3271 87.0365 76.8338 80.2484 80.4118C73.6886 83.863 55.9378 88.1643 54.7197 87.8091V87.7964Z" fill="white"/>
<path d="M41.968 91.5273C41.968 91.5273 5.61634 122.575 49.213 132.916C49.213 132.916 31.2973 116.612 41.968 91.5273Z" fill="white"/>
<path d="M387.478 343.153C381.634 350.508 375.56 357.023 369.841 362.941C366.936 365.859 364.159 368.672 361.348 371.167C358.616 373.755 355.969 376.154 353.397 378.315C350.888 380.563 348.417 382.506 346.125 384.313C343.878 386.185 341.766 387.835 339.8 389.237C335.941 392.152 332.785 394.373 330.612 395.832C328.458 397.321 327.306 398.114 327.306 398.114C327.306 398.114 328.578 397.534 330.957 396.447C333.35 395.378 336.851 393.82 341.153 391.407C343.352 390.277 345.723 388.932 348.253 387.387C350.801 385.859 353.538 384.18 356.357 382.215C362.133 378.476 368.305 373.752 374.795 368.291C381.311 362.848 387.989 356.483 394.569 349.289C400.933 342.571 407.001 334.905 412.815 326.668C414.504 325.579 416.946 323.974 419.905 321.938C425.622 318.017 433.002 312.429 439.931 306.388C445.73 301.376 451.153 296.125 455.567 291.658C455.001 291.643 454.436 291.635 453.861 291.566C453.685 291.154 453.566 290.737 453.421 290.319C448.608 293.863 442.867 297.912 436.921 301.677C432.506 304.498 428.058 307.093 423.898 309.379C426.206 305.332 428.422 301.196 430.476 296.921C431.781 294.425 432.89 291.824 434.037 289.229L435.757 285.326C436.406 283.792 436.797 282.679 437.332 281.331C439.332 275.947 441.061 270.202 442.326 264.646C443.438 259.865 444.31 255.053 445.037 250.241C446.005 248.648 447.393 246.306 449.027 243.375C452.153 237.8 455.948 230.164 459.277 222.328C461.001 218.34 462.58 214.3 463.979 210.492C463.305 210.854 462.605 211.184 461.866 211.467C461.309 211.018 460.81 210.538 460.33 210.047C458.711 212.892 456.97 215.84 455.147 218.744C452.454 223.069 449.64 227.227 446.985 230.949C446.987 230.888 446.996 230.827 446.999 230.765C447.507 219.538 447.154 208.516 446.265 197.927C445.342 187.337 443.737 177.199 441.858 167.685C440.891 162.733 439.775 157.974 438.592 153.399C438.885 152.392 439.241 151.158 439.671 149.642C440.654 145.943 441.746 140.842 442.382 135.507C442.649 133.509 442.81 131.495 442.924 129.511C442.419 129.813 441.921 130.116 441.375 130.377C440.822 129.995 440.321 129.576 439.826 129.152C439.493 130.32 439.126 131.487 438.718 132.624C437.659 135.766 436.408 138.715 435.215 141.231C435.215 141.227 435.209 141.221 435.209 141.214C432.822 133.116 430.154 125.852 427.668 119.482C425.168 113.112 422.719 107.68 420.605 103.262C418.517 98.833 416.682 95.4446 415.437 93.1451C414.182 90.8472 413.518 89.623 413.518 89.623C413.518 89.623 415.533 94.8418 418.551 104.089C420.135 108.683 421.733 114.368 423.607 120.847C425.454 127.333 427.16 134.752 428.931 142.828C430.686 150.911 432.142 159.752 433.467 169.099C434.789 178.449 435.671 188.363 436.108 198.604C436.607 208.838 436.569 219.428 435.71 230.079C434.949 240.73 433.47 251.472 430.889 261.879C429.637 267.168 428.011 272.068 426.211 277.091L424.787 280.841L423.211 284.545C422.164 287.011 421.152 289.486 419.946 291.866C415.449 301.533 410.182 310.664 404.729 319.279C399.249 327.886 393.368 335.843 387.479 343.153L387.478 343.153Z" fill="#68BEB6"/>
<path d="M442.922 129.508C464.885 116.373 446.566 65.0762 446.566 65.0762C446.566 65.0762 420.498 112.585 439.821 129.151C440.316 129.575 440.817 129.994 441.37 130.376C441.916 130.115 442.416 129.811 442.922 129.509L442.922 129.508Z" fill="#EA0075"/>
<path d="M463.981 210.489C486.205 198.584 472.073 146.759 472.073 146.759C472.073 146.759 442.511 191.991 460.33 210.046C460.812 210.536 461.317 211.018 461.866 211.466C462.607 211.182 463.307 210.852 463.981 210.489L463.981 210.489Z" fill="#EA0075"/>
<path d="M455.576 291.658C481.209 292.374 493.131 239.132 493.131 239.132C493.129 239.13 444.925 265.829 453.427 290.323C453.57 290.738 453.689 291.152 453.867 291.57C454.445 291.635 455.009 291.641 455.576 291.658L455.576 291.658Z" fill="#EA0075"/>
<path d="M485.603 398.855C485.148 393.343 480.309 389.243 474.798 389.698C471.118 390.004 468.109 392.276 466.624 395.383C462.523 394.3 457.7 392.941 452.944 391.378C447.587 389.662 442.356 387.821 438.164 386.271C442.71 383.568 447.214 380.732 451.705 377.604C458.417 372.665 465.327 366.901 471.563 361.072C472.608 361.12 473.852 361.178 475.379 361.25C479.244 361.403 484.409 361.507 489.592 361.461C493.785 361.45 497.963 361.27 501.484 361.062C502.775 363.515 505.445 365.091 508.379 364.846C512.299 364.522 515.211 361.081 514.89 357.158C514.566 353.238 511.124 350.326 507.202 350.648C503.281 350.971 500.369 354.413 500.691 358.335C500.725 358.715 500.807 359.077 500.895 359.437C497.683 359.057 493.986 358.549 490.319 357.903C485.585 357.098 480.924 356.166 477.321 355.38C482.044 350.458 486.415 345.349 490.468 340.213C495.744 333.396 500.467 326.524 504.389 319.681C504.392 319.674 504.398 319.668 504.4 319.659C505.256 319.338 506.986 318.695 509.312 317.826C512.626 316.561 517.025 314.787 521.383 312.88C523.7 311.884 525.982 310.829 528.105 309.808C529.514 313.426 533.132 315.865 537.203 315.529C542.16 315.118 545.845 310.769 545.434 305.808C545.023 300.851 540.674 297.166 535.713 297.577C530.756 297.987 527.071 302.337 527.482 307.298C527.496 307.483 527.555 307.654 527.58 307.839C525.401 308.447 523.071 309.058 520.718 309.606C516.324 310.658 511.93 311.573 508.572 312.21C510.773 308.018 512.729 303.893 514.508 299.976C515.795 296.796 517.107 293.793 518.206 290.877C519.217 287.933 520.182 285.138 521.087 282.511C522.439 278.142 523.517 274.245 524.326 270.826C525.14 270.968 525.968 271.043 526.827 270.974C532.235 270.526 536.256 265.779 535.809 260.371C535.361 254.963 530.614 250.942 525.206 251.39C519.798 251.837 515.776 256.584 516.224 261.992C516.536 265.729 518.92 268.767 522.136 270.16C520.874 273.389 519.291 277.041 517.53 281.147C516.357 283.597 515.109 286.211 513.796 288.956C512.394 291.652 510.919 294.487 509.383 297.446C506.07 303.23 502.414 309.435 498.109 315.705C495.875 319.079 493.401 322.429 490.796 325.785C490.732 322.316 490.713 318.367 490.787 314.381C490.848 309.214 491.167 304.072 491.494 299.971C492.359 300.25 493.295 300.37 494.263 300.288C498.184 299.965 501.096 296.523 500.774 292.601C500.449 288.682 497.009 285.768 493.086 286.09C489.166 286.413 486.254 289.855 486.576 293.777C486.778 296.199 488.167 298.231 490.125 299.358C488.997 303.558 487.628 309.023 486.537 314.522C485.364 320.228 484.366 325.94 483.709 330.229C483.386 332.452 483.118 334.259 482.938 335.513C477.799 341.536 472.037 347.294 466.104 353.037C462.896 355.99 459.667 358.797 456.314 361.534C456.628 357.89 457.028 353.824 457.519 349.719C458.043 345.056 458.748 340.399 459.417 336.414C459.619 336.409 459.815 336.443 460.021 336.423C464.978 336.013 468.663 331.663 468.252 326.703C467.841 321.745 463.492 318.061 458.531 318.472C453.574 318.882 449.889 323.232 450.3 328.192C450.636 332.267 453.653 335.442 457.463 336.229C456.111 340.121 454.608 344.681 453.275 349.281C451.472 355.35 449.848 361.455 448.716 366.046C448.577 366.635 448.441 367.198 448.311 367.733C447.451 368.37 446.616 369.014 445.733 369.654C438.783 374.615 431.196 379.373 423.64 383.477C419.799 385.462 415.963 387.396 412.123 389.211C412.14 388.946 412.158 388.733 412.175 388.46C412.539 383.791 413.147 377.568 413.952 371.341C414.649 365.594 415.63 359.869 416.48 355.356C416.677 355.356 416.864 355.381 417.068 355.367C420.988 355.044 423.9 351.602 423.579 347.679C423.255 343.759 419.813 340.847 415.891 341.169C411.97 341.492 409.058 344.934 409.38 348.856C409.643 352.016 411.941 354.49 414.869 355.174C413.204 359.599 411.188 365.221 409.438 370.915C407.497 377.084 405.745 383.291 404.516 387.959C403.992 390.028 403.544 391.761 403.211 393.082C402.344 393.441 401.477 393.873 400.603 394.217C392.879 397.119 385.35 399.869 377.994 401.797C370.678 403.854 363.628 405.331 357.08 406.604C353.786 407.111 350.625 407.593 347.622 408.055C344.597 408.417 341.724 408.757 339.025 409.079C333.602 409.501 328.858 409.91 324.944 409.991C321.028 410.204 317.902 410.155 315.792 410.189C313.667 410.215 312.538 410.224 312.538 410.224C312.538 410.224 313.654 410.398 315.746 410.726C317.847 411.008 320.876 411.67 324.845 411.957C328.803 412.412 333.621 412.72 339.167 412.862C341.946 412.848 344.898 412.836 348.013 412.818C351.128 412.722 354.396 412.44 357.817 412.243C364.629 411.561 372.037 410.705 379.73 408.993C387.464 407.472 395.496 405.22 403.647 402.411C411.769 399.531 420.029 396.103 428.107 391.969C428.196 391.922 428.286 391.866 428.373 391.817C429.742 392.079 431.63 392.44 433.894 392.871C438.641 393.74 445.006 394.785 451.415 395.644C456.511 396.359 461.612 396.87 465.954 397.236C465.693 398.279 465.552 399.369 465.642 400.502C466.097 406.014 470.937 410.113 476.448 409.658C481.963 409.207 486.061 404.369 485.605 398.856L485.603 398.855Z" fill="white"/>
<circle cx="416.826" cy="347.355" r="8.55802" fill="#68BEB6"/>
<circle cx="459.365" cy="327.47" r="9.31314" fill="#68BEB6"/>
<circle cx="494.1" cy="292.231" r="9.31314" fill="#68BEB6"/>
<circle cx="509.203" cy="358.179" r="8.80973" fill="#68BEB6"/>
<circle cx="538.149" cy="307.585" r="10.5717" fill="#68BEB6"/>
<circle cx="476.481" cy="400.465" r="11.8302" fill="#68BEB6"/>
</svg>
